<?xml version="1.0" encoding="UTF-8" standalone="no"?>
<!-- Uploaded to: SVG Repo, www.svgrepo.com, Generator: SVG Repo Mixer Tools -->

<svg
   fill="#000000"
   width="800px"
   height="800px"
   viewBox="0 0 32 32"
   id="icon"
   version="1.1"
   sodipodi:docname="ground-temperature.svg"
   inkscape:version="1.3.2 (091e20e, 2023-11-25, custom)"
   xmlns:inkscape="http://www.inkscape.org/namespaces/inkscape"
   xmlns:sodipodi="http://sodipodi.sourceforge.net/DTD/sodipodi-0.dtd"
   xmlns="http://www.w3.org/2000/svg"
   xmlns:svg="http://www.w3.org/2000/svg"
   xmlns:rdf="http://www.w3.org/1999/02/22-rdf-syntax-ns#"
   xmlns:cc="http://creativecommons.org/ns#"
   xmlns:dc="http://purl.org/dc/elements/1.1/">
  <sodipodi:namedview
     id="namedview4"
     pagecolor="#ffffff"
     bordercolor="#000000"
     borderopacity="0.25"
     inkscape:showpageshadow="2"
     inkscape:pageopacity="0.0"
     inkscape:pagecheckerboard="0"
     inkscape:deskcolor="#d1d1d1"
     inkscape:zoom="0.98375"
     inkscape:cx="399.49174"
     inkscape:cy="400"
     inkscape:window-width="1920"
     inkscape:window-height="1001"
     inkscape:window-x="-9"
     inkscape:window-y="-9"
     inkscape:window-maximized="1"
     inkscape:current-layer="icon" />
  <defs
     id="defs1">
    <style
       id="style1">.cls-1{fill:none;}</style>
  </defs>
  <title
     id="title1">temperature</title>
  <path
     d="M13,17.26V6A4,4,0,0,0,5,6V17.26a7,7,0,1,0,8,0ZM9,4a2,2,0,0,1,2,2v7H7V6A2,2,0,0,1,9,4ZM9,28a5,5,0,0,1-2.5-9.33l.5-.28V15h4v3.39l.5.28A5,5,0,0,1,9,28Z"
     transform="translate(0 0)"
     id="path1" />
  <rect
     id="_Transparent_Rectangle_"
     data-name="&lt;Transparent Rectangle&gt;"
     class="cls-1"
     width="32"
     height="32" />
  <rect
     style="fill:none;stroke-width:0.04"
     id="rect5"
     width="11.425667"
     height="21.956797"
     x="19.354511"
     y="3.2935195" />
  <rect
     style="fill:none;stroke-width:0.04"
     id="rect6"
     width="0.36594662"
     height="0.28462517"
     x="17.931385"
     y="10.368487" />
  <metadata
     id="metadata6">
    <rdf:RDF>
      <cc:Work
         rdf:about="">
        <dc:title>temperature</dc:title>
      </cc:Work>
    </rdf:RDF>
  </metadata>
</svg>
